<svg id="Capa_1" data-name="Capa 1" xmlns="http://www.w3.org/2000/svg" viewBox="0 0 720 720"><defs><style>.cls-1{fill:#f0edee;}</style></defs><path class="cls-1" d="M274.16,271.57c16.45,3.87,31.78,6.25,46.26,11.15,28.52,9.63,53,26.22,74.26,47.51,13.21,13.25,21.7,29.15,20.74,48.08-1.6,31.3,11.51,52,40.85,63,5.51,2.05,10.57,5.58,15.51,8.9,9.48,6.36,13,15.53,11.72,28-3.92-3.56-7-6.81-10.5-9.46-13.43-10.11-28.78-15-45.42-16.36-8.65-.72-17.5-.9-25.84-3a39.22,39.22,0,0,1-30.12-38.83c.07-10.28,1.88-20.55,2.89-30.83,2.84-28.88-7.15-51.75-32-67.39-15.57-9.79-32.78-15.35-50.61-19.29-.72,1.38-1.37,2.05-1.39,2.74-.86,34.05-1,68.23,6.46,101.56,8.29,37.13,24,70.6,57,92.95a123.78,123.78,0,0,0,61,21.37c30.92,2.23,54.55,17.26,74.38,39.37,6.42,7.16,10.78,16.17,14.9,25.58a36.76,36.76,0,0,1-4.46-2.17c-26.94-17.89-57.56-26.67-88.1-35.73-33-9.79-63.65-24-87.52-49.84-27.75-30.07-41.56-66.57-48-106.21C270.22,346.72,270.79,310.64,274.16,271.57Z"/><path class="cls-1" d="M574.44,576.67c12.73-28.52,33.65-48.33,61.83-60.06,7.32-3,15.8-3.73,23.84-4.57,49.52-5.13,86.28-28.54,108.63-73.85A198.65,198.65,0,0,0,789,357.33c.77-18.74.45-37.53.61-56.29,0-3.8-.21-7.46-5.66-6.39-24.47,4.79-47.21,13.14-64.45,32.26-15.81,17.53-19.12,38.42-16,61,1,7.52,2.31,15.09,2.47,22.65.41,19.73-9.59,33.24-28.54,38.54a82.46,82.46,0,0,1-20.07,3.18c-21.78.5-41.2,6.64-57.26,21.87a19.54,19.54,0,0,1-2.71,1.78c-3.28-10.51-1.42-17.52,7.07-23a216.33,216.33,0,0,1,24.76-14.11c22.63-10.7,34.35-28.29,32.88-53.22-1.48-25.1,9.1-44.17,27-60.19,29.89-26.84,64.43-44.08,104.36-50,12.79-1.89,13-1.63,13.77,11.61,2.28,41.17,1.91,82.18-9.5,122.23-10.73,37.69-28.74,71.08-60,95.85-20.56,16.26-44.46,26.18-69.37,33.51C635.77,548.15,602.62,556.13,574.44,576.67Z"/><path class="cls-1" d="M530.08,692.16c2.42-35.67-10.63-54.95-44.46-64.95-11.41-3.38-23.34-5.09-35.1-7.14-42.13-7.34-74.16-31.13-101.19-62.6-9.14-10.64-16.68-22.64-24.95-34l1.53-1.6a42.75,42.75,0,0,1,4.27,2.17c31.33,20.67,67,30.72,102.2,42,26.6,8.57,52.1,19,72.69,38.78,14.12,13.59,25.34,29,32.15,47.52a43,43,0,0,0,2.49,4.51c2.59-5,4.84-8.93,6.7-13,16.65-36.87,46.07-59,83.34-71.79,25.69-8.81,51.9-16.17,77.26-25.79,16.07-6.08,31-15.11,47.06-23.12-12,21.21-27,39.51-44.29,56.14C682,606.05,648.07,618.92,610.44,624a106.63,106.63,0,0,0-26.72,6.93c-21.55,9-33.13,25.74-34.12,49.23-.57,13.71-.29,13.74-14.29,12.89C533.73,692.91,532.18,692.51,530.08,692.16Z"/><path class="cls-1" d="M499.55,273.91c-28.14-8.08-37.21-16.57-37.76-34.7-.45-14.76,7.2-26.94,19.81-31.54,12.94-4.71,28.74.09,37.29,11.32,9.24,12.13,7.87,25.65-3.35,41.82,1.25,6.37,3,11.42,3.09,16.48.27,24.19.13,48.39,0,72.58,0,8.22,2.48,14.81,9.92,19.17,13.64,8,29.12,1,29.87-14.73,1.15-24.14.84-48.36,1.36-72.54.12-5.66,1.51-11.31,1.49-16.95a28,28,0,0,0-2.52-10.55c-5.62-13.23-4.16-25.87,4.38-36.94,7.67-9.93,18.55-14.1,31.18-11.23,15.47,3.51,25.4,18.16,24.24,35.05-1.09,15.73-13.7,29.76-29.07,30.07-9.42.19-10.82,3.69-10.75,12,.19,23.64-.25,47.3-1.09,70.93-.73,20.34-14.92,35.06-33.8,36.21-22.34,1.36-40.35-11.36-43-32.23-1.77-13.93-1.06-28.19-1.23-42.31C499.42,302,499.55,288.15,499.55,273.91Zm-6.69-48.3a12.6,12.6,0,0,0-13.2,12.54c0,7.18,6.31,13.73,13.35,13.8,6.58.07,12.33-6,12.65-13.44C506,231.46,500.37,225.83,492.86,225.61Zm93.32,26.29c7.11.13,13.6-6.64,13.76-14.34.14-6.54-5.62-11.92-12.74-11.91-7.45,0-13.08,5.38-13.1,12.49C574.08,245.56,579.55,251.78,586.18,251.9Z"/><path class="cls-1" d="M537.48,603.21c-10.81-30-23.94-59.47-31.8-90.26-8.29-32.44-3.13-64.4,19.27-91.44,13.09-15.81,19.12-15.74,32,.54,11.66,14.71,16.82,32,18.78,50.45,3.85,36.17-5.58,69.41-21.94,101.22-4.93,9.58-9.3,19.45-13.93,29.18Z"/><path class="cls-1" d="M311.71,319.48c28.31,7.57,45.36,31.41,42.86,59.09-.49,5.41-1.23,10.8-2,16.18-6.59,45.06,19,76.05,64.57,77.85,15.25.6,29.59,3.61,42.51,12.16,11.7,7.75,19.7,18.29,25.18,32-1.53-.21-2.37-.07-2.8-.42-17.9-14.53-38.52-21.91-61.36-23.77-48-3.91-78.4-31.06-96.88-73.83a144.12,144.12,0,0,1-12.07-57.83C311.71,347.17,311.71,333.43,311.71,319.48Z"/><path class="cls-1" d="M594,519c6.43-25.69,32.28-44.62,59.23-46.35,10.74-.69,21.77-1.87,32-5.05,28.78-9,41.49-26.85,41.35-57-.06-11.92-1.89-23.82-2.37-35.75-1-25.77,17-48.27,42.66-53.78,3.74,48.52-.94,95-33.72,134.3-17,20.33-39.3,32.92-65.06,35.29C641,493.13,616.27,499.06,594,519Z"/><path class="cls-1" d="M426.43,317.23c36.64,30.94,49.76,72.95,61,115.92-.57.74-1.13,1.48-1.7,2.21-13.77-8.31-28-16-41-25.3-4.1-2.93-5.94-10.08-7.21-15.67-1.44-6.28-1.48-13-1.4-19.48.31-26.9-11.52-47.51-32.37-63.54-10.05-7.73-16.45-17.12-15.61-30.46A30.69,30.69,0,0,1,416.21,252c15.86-1.51,31,9,34.43,23.77C454.8,293.85,447.58,306.82,426.43,317.23Zm-7.67-20.87a13.22,13.22,0,0,0,13.82-12.87c.28-6.91-5.6-12.9-12.72-12.95a13.43,13.43,0,0,0-13.77,13.12C405.88,291.19,410.92,296.25,418.76,296.36Z"/><path class="cls-1" d="M593.45,434.75c7.34-46.38,25-85.43,58.35-118-3.17-1.86-5.87-3.39-8.51-5-12.61-7.72-18.46-22.21-14.52-35.84A33.66,33.66,0,0,1,662,252c14.33.52,26,9.69,29,23.14,2.81,13-2.7,23-11.75,32.07-9.55,9.53-20.08,18.73-27,30-5.82,9.51-7.55,21.72-10.14,32.95-1.26,5.43-.56,11.38-.33,17.08.61,15-5.93,25.35-19.45,31.87C613.07,423.61,604.24,428.88,593.45,434.75Zm80.12-151.87c.23-7-5.57-12.8-12.93-13a14,14,0,0,0-14.36,13.63c-.16,6.75,5.29,12.24,12.41,12.5C666.6,296.28,673.32,290.35,673.57,282.88Z"/><path class="cls-1" d="M674.35,801.78c-8.69,15.52-17.62,30.91-25.9,46.65-2,3.72-3.66,5.74-7.78,5-4.8-.8-10.36,3-13.93-4.42-7.71-16-16.48-31.56-24.82-47.3l-2,.48q0,16.86,0,33.71c0,10.06-.19,20.12,0,30.18.08,4.72-1.39,7.13-6.51,6.85-4.81-.27-9.66-.06-15.27-.06-.18-3.7-.46-6.58-.45-9.47.09-37.51.13-75,.49-112.55,0-3.12,2.53-9,3.41-8.89,6.34.63,14.17-4.61,18.69,4.6,10.64,21.71,21.66,43.24,32.57,64.82,1.44,2.87,3.08,5.63,5.27,9.61l18-35.9c5.24-10.44,10.45-20.9,15.74-31.32,7.12-14,8.4-14.59,25.45-11.63.15,2.71.44,5.61.45,8.51.07,38.06-.07,76.12.3,114.18.07,7.12-1.81,10.19-9.1,9a21.34,21.34,0,0,0-5.7,0c-5.35.63-7.08-1.65-7-7,.23-21.46.09-42.93.09-64.39Z"/><path class="cls-1" d="M295.64,819.75l32.58,53.81c-9.29,0-16.21.39-23-.24-2.06-.19-4.41-2.87-5.7-5-5.24-8.58-9.87-17.53-15.17-26.06-8-12.92-18.56-18.57-34.23-18.35,0,12.64.18,25.34-.12,38-.08,3.72-.82,10.17-2.51,10.62-5.31,1.4-11.24.78-16.87.3-.88-.08-2.11-3.51-2.12-5.4-.2-39.69-.19-79.38-.38-119.07,0-5.12,1.63-7.32,7-7.2,14.4.32,28.84-.33,43.21.43,18,1,30.66,10.49,37.18,27.22s3,31.59-9.75,44C302.59,816,298.29,818,295.64,819.75ZM250.32,802h20.42a71.25,71.25,0,0,0,7.31-.07c9.59-1,17.32-9,17.73-18.17.45-9.91-5.76-17.79-16.3-18.73-9.55-.86-19.24-.18-29.16-.18Z"/><path class="cls-1" d="M545.15,796.63v22.7H503.3c-10.48,0-10.5,0-10.49,10.79q0,8.57.16,17.13a16.26,16.26,0,0,0,1,3.3H558.6c0,6.89.39,12.83-.26,18.66-.18,1.63-3.41,4.15-5.26,4.17-26.9.27-53.8.19-81.45.19-.25-2.58-.66-4.93-.67-7.27-.16-38.63-.11-77.25-.53-115.87-.08-7.11,2-9.47,9.2-9.33,23.11.43,46.24.38,69.36.15,6.44-.07,8.6,2.28,8.45,8.59-.37,15.88,1.24,13.24-13.5,13.56-14.41.32-28.84.7-43.24.37-6.89-.15-9.29,2.17-8.55,8.89.47,4.3.09,8.69.1,13,0,10.84,0,10.85,11.26,10.75,10.88-.1,21.75-.27,32.63-.32C539.05,796.12,542,796.45,545.15,796.63Z"/><path class="cls-1" d="M765.1,833.9l20.7-4.84c3.35,13.51,10.89,21.87,24.75,22.65a36.6,36.6,0,0,0,10.49-.9c6.93-1.67,13.31-9.38,13.27-15.91,0-7.54-4.74-12.22-11.22-14.49-5.57-1.95-11.62-2.59-17.49-3.62-16-2.8-30.19-8.09-34.78-26.07-4.17-16.32,2.36-32.23,17.25-42.36,13.57-9.23,34.22-9.32,47,0,9.54,7,15.67,16.36,18.55,29.1-6.08,1.06-11.79,2.42-17.56,2.8-1.5.1-3.67-2.59-4.72-4.45-5.86-10.44-22-15.67-31.8-8.83-4,2.8-7.09,8.93-7.85,14-.91,6,4.41,9.59,10,11.08,8.66,2.29,17.56,3.74,26.12,6.34,19.92,6,29.08,18.47,28.34,37.5-.7,17.93-13.07,32.71-31.16,37.23-25.94,6.48-49.68-6.41-58.28-31.73A67.29,67.29,0,0,1,765.1,833.9Z"/><path class="cls-1" d="M996.18,873.2c-6.93,0-13.17.46-19.28-.24-2.24-.25-4.95-2.84-6.08-5.06-4.43-8.72-8-17.89-12.6-26.49a11,11,0,0,0-7.8-4.89c-11.94-.51-23.94-.49-35.88.08-2.74.13-6.39,2.59-7.79,5a168.56,168.56,0,0,0-11.44,23.43c-2.84,7.36-7.47,9.9-14.95,9-3.42-.44-7-.08-12-.08,1.32-4,2-7.07,3.29-9.85,18.09-39,36.18-77.91,54.63-116.7,1.16-2.46,5-4.11,8-5,1.22-.37,4.15,1.9,4.93,3.6q28.29,61.49,56.22,123.15C995.78,869.83,995.75,870.68,996.18,873.2ZM945.81,814l-12.72-29.68L919.16,814Z"/><path class="cls-1" d="M83.82,873.78c1.61-4.42,2.49-7.49,3.81-10.36q25.59-56,51.3-111.86c.79-1.73,1.44-3.67,2.7-5,1.94-2,4.4-5,6.53-4.95s5,3.07,6.1,5.44q28.34,61.43,56.23,123.05c.29.64,0,1.53,0,3.33-6.46,0-12.89.43-19.2-.25-2-.21-4.12-3.17-5.25-5.35-4.38-8.44-8.61-17-12.42-25.68-2.07-4.73-5-6.25-10.06-6.07-11.41.39-22.85-.07-34.24.46a10.2,10.2,0,0,0-7.31,4.47,241.69,241.69,0,0,0-12.31,26.6c-1.77,4.58-3.85,6.59-8.76,6.25C95.89,873.5,90.75,873.78,83.82,873.78Zm63.74-89.62-13.12,30.11h26C156.19,804.36,152.33,795.33,147.56,784.16Z"/><path class="cls-1" d="M407.31,764.1c0,28.13,0,54.7,0,81.28,0,6.52-.3,13.06.15,19.55s-1.3,9.25-8.48,8.91c-15.65-.76-13.62,1.89-13.68-14.14-.1-28.79-.38-57.59.1-86.37.13-7.9-2.52-9.75-9.75-9.21-8.1.61-16.29,0-24.43.25-4.67.13-7-1.2-6.87-6.4.33-19.37-1.59-15.87,15.12-16,26.62-.24,53.24.08,79.86-.3,6.63-.09,9.59,1.85,9.13,8.6a37.43,37.43,0,0,0,.52,7.3c.68,5.08-1.65,6.7-6.49,6.62C431.14,764,419.77,764.1,407.31,764.1Z"/><path class="cls-1" d="M720,742.7c1.45-.81,1.68-1,1.91-1,23.25-.73,19.37-2.37,19.57,17.2.36,35.35.14,70.7.12,106,0,9-.12,8.52-13.3,9.09-7.54.33-8.25-3-8.23-9.14.15-37.8,0-75.59-.07-113.39C720,748.51,720,745.56,720,742.7Z"/><path class="cls-1" d="M705.83,721c-20.52.87-37.42-11.38-39.37-28.17-1-8.27.87-10.24,9.23-9.92C698.13,683.81,708.36,696.51,705.83,721Z"/></svg>