<svg id="Capa_1" data-name="Capa 1" xmlns="http://www.w3.org/2000/svg" viewBox="0 0 354.09 431.01"><defs><style>.cls-1{fill:#fff;}</style></defs><path class="cls-1" d="M109.79,155.32c9.1,1.68,12.93,8.43,16.62,15.38,1,2,2.31,3.78,3.5,5.64a10.08,10.08,0,0,0,8.39,5,21,21,0,0,1,6.61,1.87c4.49,1.77,9,3.56,13.38,5.53a15.27,15.27,0,0,1,7,6.21,9.66,9.66,0,0,1,.93,2.17,1.65,1.65,0,0,1-.69,1.88c-.73.55-1.26.13-1.89-.31a45.13,45.13,0,0,0-15.35-7.2,6.55,6.55,0,0,0-5.78,1c-4.36,3-8.81,5.91-13.22,8.85a43.4,43.4,0,0,1-23,7.31,46.28,46.28,0,0,0-12.19,1.76c-2.1.66-2.92,1.7-2.89,4.1.13,12.74.93,25.48.58,38.23-.47,17.48-2.88,34.55-10.82,50.43a146.43,146.43,0,0,1-17.26,26.38c-2.78,3.45-5.67,6.81-8.52,10.2-.39.46-.64,1.11-1.74,1.26.13-3.49-1-6.69,2.28-9.9,12.83-12.69,20.2-28.32,23.58-46a160.26,160.26,0,0,0,2.89-28.3c.14-11.62,0-23.25,0-34.86-.36.17-.4.93-.64,1.48-5.33,12.47-11.2,24.64-19.06,35.77-1.92,2.72-3.59,5.59-3.55,9.14.06,5.07,3.48,7.72,7.17,10.17a12.65,12.65,0,0,1,3,2.11c-.79-.28-1.6-.52-2.38-.84-6.17-2.56-10-7.69-9.74-13a13.7,13.7,0,0,1,2.11-6.49,290.77,290.77,0,0,0,22.06-44.39,66.76,66.76,0,0,0,2.19-6.77c.66-2.36.26-2.81-2.08-2.27A62.49,62.49,0,0,0,63,214c-1,.59-2,1.9-3.11,1.24s-.23-2.06-.09-3.11c3.43-24.81-6.22-44.32-24.4-60.41A62.72,62.72,0,0,0,8.26,137.19c-.52-.12-1.11-.18-1.44-.78.49-.94,1.38-.57,2.08-.51A85.58,85.58,0,0,1,26.64,139a3.43,3.43,0,0,0,1.6.36c6.51-1.66,12,2,17.78,3.59,1.88.53,3.67,1.41,5.59,1.94a42.16,42.16,0,0,0-11.19-6.62,51,51,0,0,0-11.77-3.6c-1.86-.32-2-1.12-1-2.58a136,136,0,0,1,13.3-17.89c1.24-1.41,2.3-1.49,3.5,0a10,10,0,0,0,1.33,1.35c1.3,1.08,1.33,2,.16,3.37a116.49,116.49,0,0,0-10,13.25c-1.07,1.65-.81,2.37,1.08,3a43.83,43.83,0,0,1,17.19,10.67,10.27,10.27,0,0,0,2.58,1.66c5.75,3,11.56,5.9,17.27,9,1.69.91,2,.7,2.2-1.19,2-18,11-31,28-38,6.66-2.73,13.83-3.29,20.88-4.34,11.05-1.64,20.77-6.51,30-12.45a2.08,2.08,0,0,0,1-2.22A133,133,0,0,1,157.12,63c.13-.78.31-1.62-.47-2.19-2.81-2.08-2.89-5.48-4-8.36-.47-1.18.46-1.54,1.4-1.64,1.81-.19,3.62-.38,5.44-.47a2.42,2.42,0,0,0,2.42-2.14c3.88-14.7,8.73-29.12,13.09-43.68.32-1.06.66-2.12,1-3.16.21-.57.35-1.4,1.09-1.39s.82.86,1,1.44c1.6,5,3.24,9.94,4.75,14.94C186,26.91,189.21,37.45,192.29,48c.48,1.65,1.27,2.39,3,2.43,1.5,0,3,.24,4.49.38,1.11.1,2,.57,1.45,1.82-1.13,2.71-1.08,6-3.8,8-.84.61-.45,1.61-.32,2.44a139.06,139.06,0,0,1,1.69,28.16c-.09,2.06-.2,4.12-.46,6.16s.61,3.15,2.27,4.21a83.28,83.28,0,0,0,34.36,12.33c8.93,1.22,17.7,3.29,25.07,8.81,10.87,8.14,17.48,18.81,18.08,32.69.08,1.75.5,2.11,2.06,1.22q9.09-5.17,18.54-9.64c3.09-1.47,4.9-4.61,7.85-6.38,3.33-2,6.55-4.19,10.26-5.42,1.83-.6,2.19-1.31,1.11-3a146.86,146.86,0,0,0-9.24-12.94c-1.47-1.88-1.14-2.65,1.63-5.12,1.64-1.47,2.48-.45,3.46.69a140.48,140.48,0,0,1,12.69,17.47c1.18,1.89.63,2.49-1.28,2.72-7.27.89-13.52,4.29-19.66,7.95a6.54,6.54,0,0,0-1,.7c-.09.08-.1.27-.22.65,3.73-1.16,7.2-2.73,10.94-3.3.5-2.34,2.71-1.77,3.9-1.69,7.1.5,13.74-2,20.62-2.84a37.59,37.59,0,0,1,7.94-.06c-.27.93-.81.9-1.24,1-10.43,1.72-19.16,6.83-27,13.62A78.6,78.6,0,0,0,298.37,179c-4.71,10.76-5.32,22.05-4.2,33.55,0,.31.12.62.13.94,0,.54.34,1.18-.15,1.58s-1.18-.1-1.67-.42a57.47,57.47,0,0,0-12.88-6c-2.32-.78-4.74-1.27-7.09-1.95-1.72-.49-2.17.23-1.93,1.79a16.3,16.3,0,0,0,1.14,4.11c6.71,15.47,13.26,31,22.54,45.21,4.38,6.72,4.38,11.94.32,16.9a17,17,0,0,1-9.18,5.56c1.75-1.21,3.55-2.37,5.25-3.65,5.33-4,6.48-9.12,2.9-14.78-5.51-8.7-11.08-17.35-15.47-26.69-2.09-4.43-4.09-8.9-6.5-13.36,0,3-.16,6,.05,8.94.21,3.16.23,6.32.25,9.49.13,14.33.42,28.65,2.88,42.83,3.3,18.93,11.16,35.56,25,49.09,2.48,2.42,1.8,5.44,1.83,8.24,0,1.54-1,.39-1.51-.1a151.55,151.55,0,0,1-11.69-13.73c-8.48-11.34-16-23.17-20.35-36.82-3.29-10.35-4.64-21-5.26-31.76-.82-14.56-.21-29.11.41-43.66.09-2.25-.65-3.3-2.75-3.92a34,34,0,0,0-10-1.65c-11.1.09-20.7-3.92-29.61-10.13-3.31-2.3-6.76-4.41-10.13-6.62a4.75,4.75,0,0,0-4.28-.53c-5.88,1.73-11.62,3.7-16.56,7.5-.46.36-1,1-1.65.57s-.12-1.19.05-1.77c1.56-5.42,5.45-8.64,10.48-10.52,6.5-2.43,12.78-5.59,19.87-6.18,2.32-.19,3.7-2,5.08-3.63,2.35-2.83,3.84-6.18,5.64-9.34,3.25-5.74,7.22-10.58,14-12.28,2.09-.53.66-1.44,0-2-4.88-4.21-10.45-7.4-16.06-10.52-10.44-5.8-21.21-11-30.83-18.24a86.43,86.43,0,0,1-17.64-17.16c-1.24-1.66-1.8-1.54-3,.08-7.54,10.19-17.56,17.46-28.31,23.86-9,5.39-18.64,9.82-27.46,15.6A85.09,85.09,0,0,0,109.79,155.32Zm-13.26,7.4a2.38,2.38,0,0,1-2.45-1.28c-3.93-5-4.37-10.6-2.11-16.36,2.62-6.64,8.6-9.13,15.33-6.69a17.43,17.43,0,0,1,7.43,5c1.33,1.53,2.47,1.59,4,.37s3.15-2.12,4.76-3.13c10.46-6.56,21-13,31-20.25,3.32-2.42,5.33-4.76,3.41-9a7.88,7.88,0,0,1-.36-2.09c-.21-1.44-.79-1.68-2-.86a60.46,60.46,0,0,1-8.29,4.62c-7.94,3.58-16.35,5.39-24.9,6.75-6.57,1-13.13,2.19-19.32,4.78-11.91,5-18.25,14.65-22.31,26.29-.92,2.63-.67,5.31-.64,8a2.32,2.32,0,0,0,1.43,2c3.61,2.14,7.25,4.23,10.8,6.45,1.61,1,2.57.62,3.46-.91a42.91,42.91,0,0,1,4-5.6,106.38,106.38,0,0,1,13-12.82c1.07-.92,1.25-1.58.19-2.66a18.18,18.18,0,0,0-7.3-4.74,8.93,8.93,0,0,0-10.39,3.14,14.83,14.83,0,0,0-2.94,7.66A13.4,13.4,0,0,0,96.53,162.72Zm177.81-5.82c-.1-1.66-.14-2.61-.23-3.55a10,10,0,0,0-.32-1.63c-3.6-13.81-12-23.3-25.5-28.09a87.21,87.21,0,0,0-16.87-3.86c-11.25-1.61-22-4.75-31.73-10.7-2.48-1.51-2.49-1.49-3,1.49-.18,1.1-.38,2.19-.63,3.27a4.14,4.14,0,0,0,1.43,4.44,121.27,121.27,0,0,0,10.63,8c9.26,6.53,19.29,11.84,28.63,18.25,1.18.81,2,.51,2.88-.4a26,26,0,0,1,6-4.63c8.91-4.73,18.11.8,18.32,10.91a17.78,17.78,0,0,1-5.23,12.85c-1.56,1.67-.22,2.7.52,3.91s1.82.85,2.85.23c3-1.79,5.9-3.72,9-5.31C273.62,160.76,274.86,159.05,274.34,156.9ZM94.49,181.4c-2.09,8.47-2.51,16.37-3,24.25-.08,1.42.79,1.26,1.74.81a26.85,26.85,0,0,1,7.89-2.47c5.8-.77,11.59-1.42,17.07-3.81,7.57-3.3,14.39-7.9,22-11.86-2.67-.74-5.17-.6-7.39-1.74-4.53-2.31-7.41-6.11-9.65-10.46-1.67-3.23-3-6.64-4.63-9.89-1.75-3.44-4.07-6.37-7.85-7.9-2-.83-3.61-.59-5.07,1.1a56.54,56.54,0,0,0-7.33,10.77c-3,5.71-4.33,11.22.17,17,3.47,4.47,10.07,4.88,12.81.21,2.83-4.83,2.6-10,.81-15.11a7.17,7.17,0,0,0-1.76-2.5c-2.35-2.37-5.07-2.2-7.08.46-.91,1.19-1.63,2.53-2.71,4.23.52-4.44,2.74-7.44,5.44-7.85,3.21-.49,6.29,1.56,7.7,5.42a18.57,18.57,0,0,1-.29,14.12c-1.28,3-3.31,5.42-6.82,5.51a10,10,0,0,1-9.29-5.1C96.37,185.13,95.63,183.57,94.49,181.4Zm164.84-.91a13.57,13.57,0,0,1-2.09,6c-3.28,5.42-10.21,6.69-14.09,2.62-4.54-4.75-4.29-16.25.46-20.86,2.23-2.18,5.07-2.34,7.21-.29,2,1.86,2.61,4.3,2.86,6.88-.88-1.31-1.45-2.8-2.32-4.08-2.18-3.23-4.92-3.26-7.31-.2-3.32,4.22-3.6,12.65-.57,17.09a6.64,6.64,0,0,0,8.8,2.19c4.7-2.26,7.51-8.48,6.13-13.68-1.78-6.66-5.42-12.25-10.05-17.27a2.5,2.5,0,0,0-2.55-.77,12.19,12.19,0,0,0-8.05,5.4c-3,4.25-4.68,9.15-7.16,13.66-3.44,6.25-8,10.78-15.69,11a4.63,4.63,0,0,0-.84.29c2.48,1.44,4.77,2.78,7.08,4.09,8,4.51,16,9.13,25.3,10.45,5,.72,10.06,1.26,14.77,3.32,1.19.52,1.62.07,1.55-1.11-.16-2.85-.25-5.7-.5-8.53A67.94,67.94,0,0,0,259.33,180.49ZM39.17,146.84c.83.71,1.63,1.44,2.47,2.13a68.37,68.37,0,0,1,22.43,33.14,60.51,60.51,0,0,1,2.62,20.63c-.08,1.81.35,2.24,2.14,1.43a62,62,0,0,1,12-3.62c3.85-.87,3.81-.84,4.2-4.89a73.37,73.37,0,0,1,4.92-21c.64-1.55.24-2.27-1.11-3-3.34-1.81-6.65-3.66-9.92-5.6-9.46-5.62-18.94-11.2-29.08-15.55A49.27,49.27,0,0,0,39.17,146.84Zm276.22-.14a55.63,55.63,0,0,0-9.57,3.35c-14.5,5.95-27.44,14.77-41.12,22.22a1.3,1.3,0,0,0-.69,1.93c3.36,7.38,4.71,15.24,5.36,23.24.17,2,1.13,2.62,2.91,3a63.62,63.62,0,0,1,12.3,3.56c2.82,1.18,2.87,1.17,2.82-2-.26-16.67,5.62-31.09,16-43.86A76.41,76.41,0,0,1,315.39,146.7ZM176.92,30.22c-.16.42-.35.84-.48,1.28-3.46,11.6-7.09,23.15-9.87,34.94a113.12,113.12,0,0,0-3.33,24.16c0,.66-.31,1.61.53,1.88s1-.62,1.37-1.11a77.22,77.22,0,0,0,11-18.49c.25-.63.33-1.64,1.12-1.65,1,0,1,1.11,1.19,1.8a48.16,48.16,0,0,0,6,11.82,55.52,55.52,0,0,0,6.86,8.62C191.17,70.89,182.88,50.86,176.92,30.22Zm12.7,78.67c1.46-3.65,1.32-7.76-.11-9.51C185.3,94.24,181.22,89,178.22,83c-.8-1.59-1.24-1.44-2.06,0a100.83,100.83,0,0,1-11.57,16.47,2.41,2.41,0,0,0-.87,1.87c.38,2.54.28,5.16,1.09,7.75a4.23,4.23,0,0,0,1.67-1.46c2.9-3.13,5.82-6.24,8.72-9.37,1.41-1.52,2.75-1.62,4.21,0s3,3.06,4.45,4.6Zm72.7,43.89a14.55,14.55,0,0,0-2.3-8.08,9,9,0,0,0-11.59-3.59,25.24,25.24,0,0,0-7.32,5.14c-.64.58-.64,1,0,1.49a73,73,0,0,1,14.78,14.59c.73,1,1.5,1,2.31,0C260.54,159.57,262.41,156.6,262.32,152.78Z"/><path class="cls-1" d="M160.05,373.36a2,2,0,0,0,.24-1.57c-1.84-8.53-5.37-16-11.77-22.28-9.31-9.11-13.66-20.51-14.1-33.51-.34-10.11-.29-20.27-3.31-30.11a207,207,0,0,0-9-24.49c-4.45-9.85-7.44-20-6.81-31.15-1.56,3.57-4,6.59-5.49,10.08a4.3,4.3,0,0,0,.36,3.24c1.89,5.2,4,10.32,5.78,15.57,3.33,10.08,5.35,20.34,3.65,31-1.29,8.14-5.74,13.9-12.93,17.66-2.53,1.32-5.13,2.5-7.65,3.83-4.85,2.57-5.52,5.87-1.58,9.56,5.74,5.35,6.3,12,5.24,19-1.38,9.13-1,18,2.66,26.56a2,2,0,0,1,0,.69c-.87-.19-.9-.92-1.17-1.45C100,358,99.7,349.38,101,340.6c1-7.2,0-13.58-5.83-18.81-4-3.64-3.21-8.49,1.49-11.56,2.65-1.73,5.44-3.25,8.16-4.86C112.13,301,116,294.72,116,286.08c0-11.55-3.31-22.32-7.41-32.92-.72-1.88-1.58-3.7-2.65-6.19-1.32,4.93-1.44,9.27-1.74,13.57-.57,8.13-1.06,16.25-2.39,24.32-1.7,10.28-6.34,19.13-12.35,27.45-3,4.1-5.87,8.28-7.68,13.07-.11.3-.22.59-.32.9-1.68,5.23-2.06,10.15,3.4,13.71-3.06-.66-4.68-2.72-5.47-5.49-1.16-4.08-.27-8,1.17-11.84,2-5.38,5.14-10.19,8.3-14.91,6.11-9.13,8.64-19.26,9-30.06.31-8.07,0-16.14.26-24.22.33-12,4.26-22.27,12.93-30.64,5.36-5.18,10.06-11,15.16-16.36a17,17,0,0,1,1.37-1.32,1.16,1.16,0,0,1,.83-.29c.47.14.45.62.34,1-.88,2.88-1.46,5.93-3.2,8.4-3.55,5.06-4.56,10.51-4,16.64,2.08,24.18,13.31,43.9,29.49,61.23a48.35,48.35,0,0,0,11.07,8.54c11.22,6.55,24.49,5.31,35.24-3.21,9-7.14,15.92-16,21.64-25.89,6.37-11,11.28-22.5,13-35.18.35-2.5.49-5,.73-7.56a21.18,21.18,0,0,0-4-14.31,20.84,20.84,0,0,1-2.85-7c-.16-.66-.5-1.51.36-1.89s1.16.38,1.56.83c2.8,3.11,5.55,6.28,8.38,9.38,3.46,3.81,7,7.52,10.46,11.35,5.66,6.31,8.32,13.87,9.13,22.22a156.25,156.25,0,0,1,.35,20.41c-.52,15.44,3,29.64,11.85,42.46a38,38,0,0,1,6.56,15.9,12.79,12.79,0,0,1-1.54,8.71,7.93,7.93,0,0,1-5.53,4.07c-.06-.66.41-.7.71-.88A9.36,9.36,0,0,0,273,329.64c-1.1-6.43-4.34-11.93-8.14-17-9.32-12.38-13.07-26.51-14-41.67-.44-7-.68-14.07-1.84-21-.13-.75,0-1.6-.87-2.27a92.67,92.67,0,0,0-5.11,12.75c-2.68,8.4-4.63,16.92-4.45,25.85.19,9.3,4.31,16,12.61,20.15a40.58,40.58,0,0,1,7.73,4.54c3.46,2.83,3.73,7.81.29,10.66l0,0c-6.68,5.21-6.94,12.33-6,19.84.81,6.31,1.26,12.59-.68,18.82a38.6,38.6,0,0,1-3,6.45l0,0c-.7-.26-.75-.74-.43-1.32,4.14-7.71,3.52-15.88,2.47-24.13-.42-3.28-.94-6.57-.4-9.92a17.57,17.57,0,0,1,4.87-9.57c4.91-5.12,4.46-7.67-1.87-10.91-2.61-1.33-5.31-2.48-7.88-3.88-7.08-3.81-10.5-10.11-11.58-17.8-1.68-11.87,1.05-23.12,5.08-34.16,1.38-3.79,2.8-7.57,4.2-11.36a5.53,5.53,0,0,0-.25-4.58,108.11,108.11,0,0,0-5.13-9.9,60.54,60.54,0,0,1-.62,15c-1,6.39-3.58,12.27-6.09,18.19-4.35,10.28-8.64,20.6-10.51,31.71-1.19,7.13-1,14.36-1.29,21.54-.39,9.1-2.5,17.72-7.5,25.44a114.72,114.72,0,0,1-9.93,12.42c-3.44,3.95-5.42,8.51-7,13.54-1.38,4.43-.17,7.59,2.16,10.91a8.33,8.33,0,0,1,.49,1.19c-2.86-1-3.68-3.24-4.62-5.69a44.48,44.48,0,0,1-3.24,3.48c-7.8,6.69-20.64,6.09-27.66-1.38-1.26-1.34-1.78-1.31-2.7.18a10.88,10.88,0,0,1-6.28,5ZM199.51,322c2-1.29,3.74-2.26,5.33-3.39,3.54-2.5,5.7-5.51,5.25-10.32a39.8,39.8,0,0,1,3-20c.42-.95.78-1.93,1.17-2.9a8,8,0,0,0-2.15,2,82.42,82.42,0,0,1-18.5,16.91c-10.06,6.53-20.25,8-30.87,1.14a88.79,88.79,0,0,1-20.43-18.28c-.45-.55-.75-1.31-1.75-1.64,1,2.76,1.89,5.27,2.79,7.8,1.85,5.21,1.47,10.63,1.32,16a8.64,8.64,0,0,0,3.57,7.81c.76.56,1.38,1.33,2.17,1.84,1.28.83,2.6,2.83,3.88,2.08,1-.59-.14-2.75-.35-4.21s-1.23-2.81-.6-4.74a34.68,34.68,0,0,1,6,11.85c.36,1.26.76,2.38,2.23,2.77,6.61,1.74,11.17,6,14.52,11.8.84,1.43,1.41,1.51,2.19,0C181.16,332.64,186,329,192,326.8a5,5,0,0,0,3.14-3.4,30.47,30.47,0,0,1,4.63-9.87c.45-.63.76-1.55,2.14-1.49C201.2,315.27,200,318.21,199.51,322Zm-54.62-2.26a6.25,6.25,0,0,0-.2,1,9.49,9.49,0,0,0,.06,1.19c.74,9.57,5.07,17.16,12.66,23,3.86,2.94,7.54,6,9.84,10.46,1.7,3.29,2.3,6.86,3.06,10.42,1.06,4.95,5.8,7,10.3,4.76a7.37,7.37,0,0,0,4.2-6.2c.68-7.32,4.13-12.91,9.95-17.34,4.59-3.5,9-7.28,11.61-12.66A34.83,34.83,0,0,0,209.78,320a23.86,23.86,0,0,1-7.92,6.76,81,81,0,0,1-8.68,3.86c-6.58,2.61-10.64,7.42-12.59,14.17s-1.79,13.47-2.67,20.2c-.1.8.22,1.8-.85,2.32-.79-.52-.7-1.35-.77-2.12-.32-3.7-.6-7.41-1-11.11-1.05-10.46-4.27-19.5-15.19-23.7C154.3,328.14,148.73,325.35,144.89,319.75Z"/><path class="cls-1" d="M229.61,413.31c-.72,1.07-1.9,1-3,1.23-3,.53-6.09,1-9.14,1.5-.6.1-1.35.47-1.71-.25s.38-1.15.8-1.57a3.12,3.12,0,0,0,.93-2.81q-1.43-10.94-2.85-21.89a8.59,8.59,0,0,0-.3-1,2.24,2.24,0,0,0-.79,1.63c-1.21,4.84-2.38,9.68-3.62,14.52-.22.86,0,2.3-1,2.42s-1.32-1.36-1.84-2.19c-2.62-4.21-5.21-8.44-8-12.6.55,6.63,1,13.23,2.08,19.75a5.39,5.39,0,0,0,3,4.29c.48.23,1.2.4,1.11,1.07s-.82.63-1.36.68q-3.78.31-7.57.59c-.46,0-1,.12-1.3-.34s.17-.93.55-1.15c1.63-1,1.75-2.46,1.67-4.12-.37-8.71-1.34-17.35-2.37-26a5,5,0,0,0-2.1-3.79c-.48-.34-1.29-.7-1-1.43s1.12-.39,1.72-.43c1.73-.12,3.48-.13,5.21-.31a3.07,3.07,0,0,1,3.42,1.91c1.62,3.26,3.32,6.48,5,9.69.39.74.56,2,1.51,1.94s.83-1.36,1.06-2.13q1.64-5.34,3.13-10.72c.6-2.14,1.81-3.55,4.13-3.55,3.91,0,6-2.33,7.91-5.42,5.11-8.1,5.2-17,4.31-26-.76-7.63-2-15.22-2.9-22.84a26,26,0,0,1,.77-10.83,9.79,9.79,0,0,1,4.53-5.85,1.42,1.42,0,0,1,1.57-.17c.55.4.32,1,.15,1.54a26.25,26.25,0,0,1-1.39,4c-2.57,4.93-1.93,10.13-1.63,15.35.43,7.43,1.44,14.8,1.68,22.25.3,9.17-1.61,17.61-7.52,24.88a9.19,9.19,0,0,0-.71,1.29c3.35-.84,6.39-1.62,9.44-2.36.66-.16,1.53-.63,2,0s-.34,1.3-.83,1.74c-1.44,1.29-1.47,2.71-1,4.5,2.14,8,4.14,15.94,6.2,23.91a11,11,0,0,0,1.5,4,2.09,2.09,0,0,0,1.8,1c.91-.06,1-.88,1.22-1.55,1.12-4.3.63-8.65.38-13-.06-.91-.54-1.83.24-2.91,1.1,1,1.39,2.32,1.92,3.46a8.43,8.43,0,0,0,8.33,5.18c3.64,0,7.09-.61,10.07-2.89,2.22-1.69,3.27-4,2.69-5.9s-2.85-3.41-5.64-3.55c-3.61-.2-7,.82-10.57,1.37-8.14,1.27-13.64-3.67-13-11.72.44-5.22,3.9-8.07,8.31-10.07.86-.39,1.78-.64,2.68-.95l0,0a14.36,14.36,0,0,1,5.19.29c1.68.56,2.74.23,3.1-1.65.1-.51.17-1.27.79-1.33.85-.09.79.82,1.05,1.34q2.32,4.53,4.62,9.09c.34.67,1,1.25.71,2.18-1.18.29-1.68-.7-2.33-1.28-3.54-3.13-7.56-4.81-12.37-4.32a9.32,9.32,0,0,0-6,2.58,4.45,4.45,0,0,0,3.28,7.79c2.56-.06,5-.94,7.44-1.42,2.17-.41,4.33-1,6.56-.84,9.2.84,13.91,10.14,8.95,18-3.48,5.53-8.5,8.83-15.22,9.12a6.85,6.85,0,0,1-5.79-2.16c-1-1.1-1.69-1-2.33.26a3.38,3.38,0,0,0-.24.41c-1.52,5.22-5.37,7.21-10.42,7.65-2.33.21-4.54,1.48-7,.86a8.91,8.91,0,0,1,1.36-1.61c2.19-1.59,2.53-3.56,1.76-6-.9-3-1.56-6-2.33-9-1.33-5.12-2.62-10.26-4-15.35-.38-1.36-1.06-2.93-2.91-2.46a3.15,3.15,0,0,0-2.35,3.43,28.79,28.79,0,0,0,.21,3.08c1,7,2.18,14,3.05,21.1C224.76,410,226.28,412.26,229.61,413.31Z"/><path class="cls-1" d="M16.21,223.43c-.7,3.56-.67,8-4.9,10.47-.67.4-.53,1.07-.48,1.71a159.81,159.81,0,0,0,7.25,37.66c6.06,18.49,14.52,35.81,26.78,51,3.29,4.07,5.42,7.84,4.36,13.09a29.24,29.24,0,0,0-.13,4.5c0,.75.28,1.79-.66,2.09-.74.24-1.2-.62-1.69-1.11a136.7,136.7,0,0,1-14.32-17.07c-14.89-20.83-23.94-44.09-29.09-69C.21,241.59-.25,226.29.1,210.92c0-.61-.14-1.38.61-1.65.58-.22,1,.28,1.44.64C5.68,213,9.72,215.35,13.53,218,15.76,219.6,16.18,220.26,16.21,223.43Z"/><path class="cls-1" d="M354.08,220.57a182.84,182.84,0,0,1-20.25,86,146.24,146.24,0,0,1-25,35.37,18.81,18.81,0,0,1-1.35,1.33c-.94.79-1.77.57-1.81-.63-.14-4.11-.15-8.23-.14-12.34a2.76,2.76,0,0,1,.78-1.42c19.7-23.69,31.17-51,35.71-81.34.55-3.67.93-7.38,1.36-11.07.11-.93.31-2-.68-2.58-2.91-1.78-3.56-4.71-4-7.74-.22-1.63-.25-3.3-.33-5a3.11,3.11,0,0,1,1.59-3,121,121,0,0,0,12.06-8.42c1.45-1.18,2-.46,2,1C354.1,214.08,354.08,217.33,354.08,220.57Z"/><path class="cls-1" d="M137.13,426.35a5.28,5.28,0,0,1-3.74,4A10.54,10.54,0,0,1,122.33,428a27.67,27.67,0,0,1-9.4-20.09c-.16-3.15,0-6.33.08-9.5a10.9,10.9,0,0,0-2.69-6.93c-.81-1.08-1.51-1.41-2,.26-1.15,3.54-2.49,7-3.33,10.65a2.81,2.81,0,0,0,1.07,3.33,5.63,5.63,0,0,1,1.06.95c.56.67,1.3,1.52.77,2.31s-1.44,0-2.14-.21c-3.62-1.21-6.87-3.22-10.35-4.76-.54-.24-1.16-.82-1.73-.31s0,1.2.14,1.77c.34,1.14.76,2.25,1.14,3.37s.1,1.87-1.19,1.37c-4.56-1.77-9.44-2.8-13.42-5.89a15.29,15.29,0,0,1-1.42-1.25c-.33-.32-.83-.67-.62-1.18.31-.75,1-.26,1.44-.19s1.08.26,1.62.36c2.48.47,3.18,0,3.51-2.48.49-3.69.9-7.38,1.41-11.07A3.55,3.55,0,0,0,85,385.17c-2.3-2.06-4.62-4.1-6.83-6.25-1.35-1.31-2.54-1.23-4-.19-3.58,2.61-7.19,5.19-10.85,7.69-1.74,1.19-2.32,2.47-1.07,4.34.33.49.85,1.13.37,1.73s-1.21.16-1.77,0c-3.65-1.06-6.37-3.13-7.36-7-.78-3.05.15-5.37,3.1-7.4.39,1.31-.22,2.49-.24,3.67s.42,1.57,1.56,1c11.25-5.11,21.81-11.23,30.56-20.13,1.31-1.33,1-2.68.81-4.18-.1-.9-.55-2.05.32-2.67s1.62.31,2.38.66c3.31,1.51,6.61,3,9.91,4.58.49.23,1.2.35,1.17,1,0,.85-.89.95-1.43.87-3.2-.48-3.54,1.52-3.81,4C96.68,377.45,95.4,388,94.21,398.5c-.11,1-.73,2.38.91,2.76a2.45,2.45,0,0,0,2.94-1.84q3.38-8.87,6.68-17.78c.82-2.23,1.5-4.5,2.25-6.76.51-1.55.84-3.06-.5-4.43-.38-.38-.68-.95-.16-1.47a1,1,0,0,1,1.33-.08c5.19,2.92,11.18,4.05,16.26,7.19a8.58,8.58,0,0,1,4.07,9.6c-1,4.52-3.84,7.15-8.21,7.75-.84.12-1.74-.11-2.7.5,2.85,2.86,2.55,6.68,3.12,10.21,1.09,6.66,2.45,13.23,5.38,19.37,1.88,3.94,4.81,5.72,8,4.69A24.16,24.16,0,0,0,137.13,426.35Zm-15.26-43.74c.09-1.62,0-2.58-.6-3.36-1.75-2.23-4.3-3.11-6.87-3.9-.92-.28-1.24.53-1.47,1.2-1,3-2,6-2.94,9a2,2,0,0,0,.09,1.82,6.06,6.06,0,0,0,10.15.2A11,11,0,0,0,121.87,382.61Zm-33-15-8.55,7c-.66.54-.83,1.16-.15,1.8,1.94,1.86,3.87,3.73,5.87,5.54.87.78,1.17.23,1.28-.7C87.75,376.91,88.26,372.6,88.83,367.62Z"/><path class="cls-1" d="M186.41,135.51c5.07,3.32,7.78,7.62,8.1,13.12.47,7.93-3,14.59-7.66,20.68-3.28,4.26-3.62,2.95.92,6.23.64.46,1.34.83,2,1.23,6.37,3.67,6.87,3.83,12.58-2.07,7.06-7.32,7.64-16.18,3.73-25.37a29.82,29.82,0,0,0-6.74-10.25,1.49,1.49,0,0,1-.68-1.44,26.76,26.76,0,0,1,6.85,5.7c9.79,10.39,10.45,24.84,1.66,35.41a22.07,22.07,0,0,1-8,5.8c-2.6,1.19-5.09.67-7.56-.43a46.93,46.93,0,0,1-9.16-5.9c-.57-.44-1.07-1.48-2-.87-1.08.74-.38,1.74,0,2.56a66,66,0,0,1,3.84,9.19c2.7,9.32,0,17.48-5.4,25-1.35,1.89-2.26,1.73-3.53-.25-2.68-4.23-5.17-8.56-6.13-13.55-1.29-6.66,1.2-12.61,3.6-18.58.5-1.22,2.22-2.58.86-3.78s-2.5.72-3.65,1.33c-1.87,1-3.59,2.31-5.37,3.49-5.14,3.41-9.6,3.13-14.3-.88-12.67-10.84-12.46-29.08.5-40.27,1.74-1.49,3.59-2.86,5.4-4.26.21-.17.54-.18,1.09.1a32.51,32.51,0,0,0-2.55,2.27c-6.57,7.14-9.87,15.44-8.25,25.19.93,5.57,4.26,9.78,8.93,12.93a5,5,0,0,0,6,.1c2.26-1.46,4.55-2.9,6.92-4.16,1.59-.85,1.3-1.49.32-2.66a37.52,37.52,0,0,1-8.7-17.43,17.65,17.65,0,0,1,4.68-16,9.79,9.79,0,0,1,1.84-1.48,1.36,1.36,0,0,1,1.09-.2c.56.26.32.81.16,1.25-.35,1-.69,1.94-1.12,2.87-3.82,8.44-2,16.27,2.76,23.64,2,3.11,4.48,5.93,6.72,8.9.49.65.91.79,1.48.09,3.84-4.73,8-9.23,10.27-15a21.36,21.36,0,0,0-.05-16.87A16.7,16.7,0,0,1,186.41,135.51ZM182,195.76c-.21-4.6-1.92-8.66-3.89-12.64-.39-.8-.95-1.15-1.53-.18-2.76,4.6-5.11,9.35-4.11,14.93.67,3.68,2.29,7,3.81,10.43.69,1.56,1.32,1.56,2.12,0A31.91,31.91,0,0,0,182,195.76Z"/><path class="cls-1" d="M292,392.65a2.81,2.81,0,0,1,1.08,1.72c3.63,8.71,13.36,10.86,20.46,4.52,5-4.48,6.7-14.31,3.41-19.83-1.2,5.81-4.84,9.31-10,9.66-1.39.1-2.52.12-1.7-1.81.5-1.16-.12-2-.95-2.67-3.93-3.31-7.88-6.6-11.79-9.94a2.47,2.47,0,0,0-2.85-.34,70.55,70.55,0,0,0-8.66,4.42,2.79,2.79,0,0,0-1.37,2.79c0,3.48.1,7,0,10.44-.07,2.11.83,2.86,2.83,2.72a3.55,3.55,0,0,1,2.69.36,10.51,10.51,0,0,1-3.71,2.38c-2.55,1.27-5.19,2.35-7.8,3.48-.55.23-1.26.71-1.73.06s.17-1.07.58-1.4c3-2.35,3.21-5.65,3.15-9-.16-9.89-.37-19.78-.55-29.66-.05-2.32-.4-4.38-3-5.32-1.15-.41-1.12-1.29,0-1.84q5-2.43,10.09-4.75c1.31-.59,1.92.28,1.69,1.37-.76,3.63,1.47,5.75,3.69,8,6.17,6.13,12.27,12.35,19.18,17.69,1.62,1.25,3.38,2.33,5.11,3.43.57.36,1.26,1,1.94.4s.29-1.34.27-2c0-.91-.74-1.74-.26-3.12,3.89,4,8,7.44,8.09,13.44s-1.69,11.41-7.27,14.75a36.21,36.21,0,0,1-7.35,3.31C297.66,408.93,290.56,402.9,292,392.65Zm-12.34-30.6c0,4.43,0,8.18,0,11.93,0,1.18.79,1.22,1.65.77,2-1,3.92-2,5.87-3.05.7-.37,1.29-.84.52-1.62C285.15,367.53,282.6,365,279.61,362.05Z"/><path class="cls-1" d="M52.87,216.2c-2,3.12-4.17,6.13-5.92,9.38-7.63,14.14-9.47,29-4.06,44.22a37.32,37.32,0,0,0,20.79,22.28c2.32,1,4.83,1.31,7.48,2.12-14.13,2.68-35.23-8.07-41.34-26.36C22.45,245.78,34.39,226.51,52.87,216.2Z"/><path class="cls-1" d="M302.25,216.53c.93-.33,1.57.29,2.16.71,11.33,8,19.6,18.12,21.84,32.28,2.85,18-6.65,34.47-24.05,42A48.47,48.47,0,0,1,283.1,295c.54-.95,1.32-.89,2-1.06,16.73-4.29,25.82-15.8,28.85-32.07,2.92-15.73-1.53-30.1-10.53-43.14C302.93,218.08,302.08,217.57,302.25,216.53Z"/><path class="cls-1" d="M207.64,51.7A134.47,134.47,0,0,1,236.94,59a186.59,186.59,0,0,1,29.28,14.05c1.36.79,1.81,1.49.93,3-4.24,7.17-2.43,6.48-9.2,3-15.23-7.76-31.06-13.82-47.93-17-1.71-.32-3.43-.57-5.16-.79-1.28-.17-1.86-.68-1.39-2.05.66-1.94,1.27-3.91,1.87-5.88C205.71,52.16,206.38,51.44,207.64,51.7Z"/><path class="cls-1" d="M150.28,59.72c.22,1.64-.8,1.59-1.64,1.73a163,163,0,0,0-18.29,4,173.37,173.37,0,0,0-37,15.18c-2.11,1.17-3.17.84-4.32-1.18-3-5.32-3-5.17,2.24-8.27a152.26,152.26,0,0,1,50.94-18.73c6.67-1.2,5.3-1.67,7.19,4.35Z"/><path class="cls-1" d="M193,408.38a64.88,64.88,0,0,1-2.79,11.12c-.35,1-1.32,1-2.21,1q-11.27-.22-22.55-.47c-.53,0-1.19.12-1.46-.52s.27-1,.67-1.39a3.8,3.8,0,0,0,1.16-3.22q.06-13.29.16-26.6a4.06,4.06,0,0,0-.94-3.09c-.42-.44-1-1-.68-1.64s1.2-.63,1.89-.56c4.66.43,9.33.18,14,.21a13,13,0,0,0,1.66-.05c5.13-.69,4.65-.64,5.66,4.36.35,1.7.77,3.39,1.12,5.1.09.43.26,1-.35,1.21-.44.15-.69-.27-1-.56-1.27-1.41-2.45-2.91-3.81-4.23a10.6,10.6,0,0,0-7.91-3.24c-1.73,0-2.64.73-2.61,2.57,0,3,0,6,0,9,0,1.9.86,2.15,2.41,1.51,2.22-.91,3.58-2.83,5.25-4.38.4-.37.77-.95,1.38-.77.81.23.62,1,.61,1.61a94.77,94.77,0,0,0,1,13.25c.08.6.45,1.44-.24,1.72-.87.36-1.1-.66-1.49-1.18-.9-1.2-1.74-2.45-2.59-3.69a6.79,6.79,0,0,0-2.26-2.07c-3.2-1.84-4.43-1.18-4.43,2.41,0,2.85.07,5.7,0,8.55-.06,2.06.83,2.85,2.86,2.73,2.37-.15,4.74,0,7.1-.41a10.55,10.55,0,0,0,8.3-6c.45-.87.93-1.72,1.39-2.58Z"/><path class="cls-1" d="M352.42,205.5c0,1.8-1.89,2.24-3.13,3.18-2.81,2.1-3,2-3.26-1.41-1.45-19.32-6.85-37.58-14.54-55.25-.25-.58-.51-1.16-.75-1.75-1.1-2.72-.12-4.43,2.82-5.08,1.42-.31,1.81.7,2.22,1.62,2,4.32,4.05,8.59,5.74,13a187.52,187.52,0,0,1,10.73,43.91C352.31,204.21,352.34,204.69,352.42,205.5Z"/><path class="cls-1" d="M2,204.53A169.92,169.92,0,0,1,7.3,175.9a184.66,184.66,0,0,1,10.52-28.48c.57-1.25.88-3.13,3.15-1.94,2.84,1.49,3.44,2.43,2.37,4.68A164.51,164.51,0,0,0,9.47,196.39c-.6,3.91-1,7.85-1.43,11.78-.21,1.94-.82,2.29-2.49,1.07C2,206.63,1.93,206.69,2,204.53Z"/><path class="cls-1" d="M297.9,108.24a2.3,2.3,0,0,1-1.65-.92A182.74,182.74,0,0,0,268.8,85.16a1.46,1.46,0,0,1-.53-2.36c.52-.79,1-1.6,1.53-2.4,2.19-3.46,1.26-4.14,6-1.43,10.21,5.82,18.83,13.57,27,21.84.67.67,1.23,1.4.45,2.24-1.56,1.68-3.2,3.28-4.82,4.9A2.25,2.25,0,0,1,297.9,108.24Z"/><path class="cls-1" d="M56.24,108a1.86,1.86,0,0,1-1.38-.82c-5.49-6.19-6-4.39.13-10A156.46,156.46,0,0,1,79.69,78c2.67-1.63,2.67-1.62,4,1.11.14.28.27.56.42.85,2.16,4.28,2.19,4.32-1.72,7-8.71,5.92-16.58,12.88-24.4,19.9A3.31,3.31,0,0,1,56.24,108Z"/><path class="cls-1" d="M71.18,63.42c-1.89,2.55-2.71,5-4,7.15-.26.45-.38,1.21-1.07,1.07s-.53-.89-.61-1.4C64.56,64,65.58,58,67,51.93c.24-1,.74-1.55,1.84-1.41,6,.76,11.61,2.45,16.24,6.56.5.45,1.31.91,1,1.71s-1.21.57-1.89.59c-1.49,0-3,0-4.84,0,1.21,2.44,3.06,3.93,4.42,5.78.52.72,1.68,1.49.38,2.31s-2.39,2.62-4.08.93c-1.27-1.26-2.29-2.78-3.67-4,.79,1.5,1.64,3,2.37,4.5s-.1,3-2.5,4.31c-1.84,1-1.95-.75-2.43-1.65C72.63,69.16,71.23,66.83,71.18,63.42Z"/><path class="cls-1" d="M274.89,59.44c-1.94,0-3.49,0-5,0-.55,0-1.19,0-1.38-.64-.14-.51.23-.9.56-1.24,4.45-4.72,10.17-6.46,16.42-6.91,1-.08,1.32.72,1.51,1.52a61.88,61.88,0,0,1,2.1,18.07c0,.52.15,1.27-.57,1.38s-.83-.62-1.1-1.08c-1.2-2-2.38-4.09-3.69-6.34-1.23,2.61-2.33,5.08-3.54,7.49-.45.9-.94,2.46-2.35,1.33-1.2-.94-3.6-1.36-2.53-3.84A21.1,21.1,0,0,0,277,64.64c-.81,1.13-1.67,2.23-2.41,3.41-1.2,1.91-2.37.77-3.57,0s-1.44-1.71-.47-2.92C271.9,63.46,273.19,61.68,274.89,59.44Z"/><path class="cls-1" d="M230.47,219.5c-6,5.77-12,11.14-20.9,11.43A55.37,55.37,0,0,1,195,229.24c-1.64-.39-2-1.22-1.46-2.76,1.85-5.6,6.58-9.14,13.24-9.35,5.36-.17,10.71-.11,16,1.46C225.11,219.3,227.75,218.73,230.47,219.5Zm-9.11,4.2c-1.18-1-2.32.78-3.51.11-1.44-.81-2.55-.88-2.55,1.3a.89.89,0,0,1-1.14.89c-.57-.11-.7-.59-.65-1.1.08-.77.38-1.62-.75-1.92s-1.59.6-2,1.47-1.32,1.62-2,.49c-1.3-2.26-2-1.05-3,.18-.4.5-.48,1.64-1.36,1.33s-.5-1.27-.33-1.91c.42-1.6-.18-1.95-1.68-1.71a10.19,10.19,0,0,0-5.29,2.45c-.47.41-1.08.83-.88,1.55s.88.55,1.41.63a69.53,69.53,0,0,0,8.16.48c5.15.15,9.82-1.29,14.46-3.11C220.7,224.65,221.34,224.52,221.36,223.7Z"/><path class="cls-1" d="M128.67,218.18c.3.89-.56,1.61,0,2.52.9-.29,1.12-1.39,1.9-1.81.55-.29,1.25-1.64,1.51.3.12.93.89.21,1.29,0A26.84,26.84,0,0,1,152,218.12c4,1.18,7.36,3,8,7.88.4,2.95.82,3.06-2.24,3.68-6.95,1.39-13.93,2.19-20.86-.21-2.63-.91-5.23-1.89-6.73-4.51a1.1,1.1,0,0,0-1.11-.65c-2.38,0-1.88-2.12-2.29-3.45S127.19,218.54,128.67,218.18Zm19,4.55-.46,1c-.3.67.05,1.89-1,1.89s-.9-1.1-1-1.87c0-.42-.14-.82-.6-.9s-.8.32-1,.8c-.64,1.71-1.33,3-2.4.23A1.1,1.1,0,0,0,140,223a1.13,1.13,0,0,0-1,1.17c-.11,1.3-.17,2.52,1.57,2.92a40.27,40.27,0,0,0,16.47.21c1.65-.3,1.21-1.07.33-1.87-2-1.81-4.45-2.54-7.05-3.37-.14,1.53.73,3.59-1.19,3.77S148.87,223.72,147.66,222.73Z"/><path class="cls-1" d="M186.88,149.71A24.94,24.94,0,0,1,178,164.83c-.86.73-1.6.35-2.29-.33a27.31,27.31,0,0,1-7.49-12.18c-1.13-4.08.16-7.65,2.54-10.91a36.37,36.37,0,0,1,5.08-5.3c.63-.57,1.35-1,2.1-.33,3.88,3.54,7.51,7.28,8.8,12.63C186.81,148.72,186.81,149,186.88,149.71Zm-5.28-.06c-.13-2.81-1.88-4.73-3.16-6.87-.78-1.3-1.38-1.37-2.44-.18-4.16,4.66-4,10.59.4,15.06.6.61,1.07.65,1.53,0A20,20,0,0,0,181.6,149.65Z"/><path class="cls-1" d="M206.07,379.24c-5.27,0-9.34-4.38-9.28-9.94a9.28,9.28,0,0,1,9.58-9.16c5.15,0,9.89,4.55,9.84,9.4C216.15,375.13,211.83,379.26,206.07,379.24Zm.62-13.44c-2.71-.12-4.48,1.16-4.6,3.3a4.43,4.43,0,0,0,8.81.82C211.05,367.65,209.27,365.91,206.69,365.8Z"/><path class="cls-1" d="M148.35,378.77c-5.63,0-10-4.12-10.06-9.47a9.63,9.63,0,0,1,9.5-9.54c5.23-.09,9.92,4.62,10,10C157.83,374.66,153.56,378.73,148.35,378.77Zm-.18-13.45c-2.62,0-4.89,1.84-4.93,4.07s2.21,4.32,4.73,4.3,4.57-1.76,4.57-4.09A4.3,4.3,0,0,0,148.17,365.32Z"/><path class="cls-1" d="M132.92,376.41a5.61,5.61,0,0,1-3.83-2c-5-5.13-6.61-11.56-6.89-18.45-.34-8.48.9-16.88,1.58-25.31.22-2.68.3-5.38.72-8,.73-4.59-1.43-8.47-2.75-12.57-.31-.95-1.41-2.22-.14-3s2.29.41,3.08,1.24c3.59,3.76,4.15,8.41,3.55,13.28-1.07,8.55-2.3,17.09-3.35,25.64-.81,6.63-1,13.24,1.25,19.7A18.77,18.77,0,0,0,132.92,376.41Z"/><path class="cls-1" d="M197.52,277.11c-4.2,2.06-37.11,1.93-41.21-.09,5.07.82,8.59-2.5,12.59-4.52,2.07-1,4.08-1.67,6.34-.69a3.71,3.71,0,0,0,2.8.2c4-1.74,7.46-.17,10.69,2A17,17,0,0,0,197.52,277.11Z"/><path class="cls-1" d="M95.9,89.24c-.5,5.53,2.89,9.48,5.74,13.61.73,1.05,2.21.7,3.3,1.12a4.52,4.52,0,0,1,2.89,5.71,4.22,4.22,0,0,1-5.39,2.16,3.69,3.69,0,0,1-2.49-4.55,4,4,0,0,0-.92-3.5,9.08,9.08,0,0,1-1.13-1.52C95.53,97.71,92,95,86.67,95c-1.32,0-1.56-.85-1-2,.38-.78.75-1.57,1.15-2.34C89.47,85.54,88,86,94.53,87.23,95.71,87.45,96.19,88,95.9,89.24Z"/><path class="cls-1" d="M249.64,112.38a3.39,3.39,0,0,1-3.49-3c-.38-2.37,1.08-5,3.43-5.16,2.64-.15,3.64-1.77,4.74-3.59,2.13-3.52,4.38-7,4.22-11.36,0-1.27.64-1.85,1.89-1.93A17.16,17.16,0,0,0,263,87a2.57,2.57,0,0,1,3.23,1.67c.79,1.8,2.48,3.76,2.17,5.34-.38,2-3.22,1.11-4.93,1.68a7.51,7.51,0,0,0-3.9,2.52c-1.29,1.71-2.52,3.46-3.88,5.09a5.4,5.4,0,0,0-1.41,4.5C254.65,110.49,252.59,112.39,249.64,112.38Z"/><path class="cls-1" d="M192,216.32a16,16,0,0,1,.12-1.61c.06-.47.42-1.19.82-.88,1.54,1.17,2.51-.2,3.63-.67,8-3.35,16.12-4.51,24.55-1.88a17,17,0,0,1,5.76,3.24c.37.31,1.11.66.45,1.31-.51.5-1.41,1-1.84.3-1.63-2.8-4.48-2.43-6.92-2.66-6.61-.63-12.89.91-18.89,3.67-1.51.69-3,1.46-4.55,2C192.16,220.27,191.94,220.07,192,216.32Z"/><path class="cls-1" d="M290.87,123.45c8.07-14.12,22.29-22,33.26-33.15C313.34,101.66,305.62,116.08,290.87,123.45Z"/><path class="cls-1" d="M31.25,91c2.73,2.49,5.44,5,8.21,7.44,4,3.49,8,7,12,10.36a68.45,68.45,0,0,1,11.08,12.3c.32.42.89.89.34,1.43s-1.06.07-1.53-.18a43.47,43.47,0,0,1-12.93-10.26C42.73,105.36,37.15,98.49,31.14,92a2.23,2.23,0,0,1-.29-.6Z"/><path class="cls-1" d="M127,216.89a4.61,4.61,0,0,1,2.66-3.68c5-3,10.41-3.3,16-2.84,5.34.44,10.24,2.52,15.33,3.88,1.46.39,1.79,2.06,1.17,3.59s-1.34,2.23-3,1.37a57.77,57.77,0,0,0-11.24-4.4C140.84,212.94,133.89,212.27,127,216.89Z"/><path class="cls-1" d="M177.53,256.33c-.81-1.08-.6-2.3-.65-3.45-.31-7.19-.56-14.38-.92-21.56-.33-6.5-3.23-12-7-17.07-.28-.36-.55-.73-1-1.27,4,1.61,5.15,3.19,9.66,13,1.67-4.6,3.34-8.95,6.87-12.33.79,1.1.08,1.85-.31,2.52-4.29,7.25-5.65,15.14-5.47,23.47.1,4.65-.25,9.32-.44,14A3.44,3.44,0,0,1,177.53,256.33Z"/><path class="cls-1" d="M279.72,136.15c-1-.09-2.06-.28-2.53-1.37a2.72,2.72,0,0,1,.42-2.91c.44-.53,1.05-1.21,1.64-1.28,3.27-.38,4.76-2.48,5.75-5.32a2.74,2.74,0,0,1,3.45-1.8,2.14,2.14,0,0,1,1.51,3.42,4.25,4.25,0,0,1-2.64,2.27c-2.3.42-3.24,1.87-3.8,3.93A3.79,3.79,0,0,1,279.72,136.15Z"/><path class="cls-1" d="M74.11,135.92a3.1,3.1,0,0,1-3.48-2.72c-.46-2.5-1.55-4.26-4.29-4.54a1.16,1.16,0,0,1-.43-.18,3.87,3.87,0,0,1-2-3.72,1.47,1.47,0,0,1,1.5-1.54c1.59,0,3.2.13,4,1.93.31.73.62,1.45.9,2.19a3.9,3.9,0,0,0,3.44,2.8,3.71,3.71,0,0,1,3,2.05C77.85,134.42,77,135.91,74.11,135.92Z"/><path class="cls-1" d="M190.39,281.28c-.7,3.37-6.36,6.72-11.37,7.13-6.86.55-14-2.57-16-7.52a22.54,22.54,0,0,0,13.71,4.88C181.65,286,186.15,284.28,190.39,281.28Z"/><path class="cls-1" d="M125,218.54c-.41,5.44,2.5,8.87,6.71,11.38a19.86,19.86,0,0,0,8.45,2.93c7,.6,13.92,1.28,20.31-2.54.41-.25.89-.54,1.19.07.21.43-.19.75-.53.94a17.21,17.21,0,0,1-2.53,1.29c-9.84,3.64-19.46,4.1-28.48-2.29-3-2.16-5.35-4.91-5.8-8.84A3.21,3.21,0,0,1,125,218.54Z"/><path class="cls-1" d="M190.58,230.16c4,.8,7.89,1.78,11.83,2.52a33.78,33.78,0,0,0,15-.73,17.34,17.34,0,0,0,10.14-7.35c.75-1.09,1.27-2.37,2.46-3.19-.4,3.12-4.59,8.27-8.29,10.35a25.24,25.24,0,0,1-15.61,2.92,59.15,59.15,0,0,1-14.85-4A3.39,3.39,0,0,1,190.58,230.16Z"/><path class="cls-1" d="M187.8,260.49a7.14,7.14,0,0,0-6,2.87c-.4.48-.76,1.47-1.63.85-.61-.43-.21-1.2,0-1.76,1-2.52,2.33-4.71,5.38-5a4.3,4.3,0,0,1,2.75.52c.84.49,1.76,1.17,1.49,2.19S188.4,260.31,187.8,260.49Z"/><path class="cls-1" d="M168.8,257.17a6.31,6.31,0,0,1,5.85,5.77c0,.38.11.85-.38,1s-.87-.28-1.14-.65c-1.36-1.88-3.34-2.55-5.51-2.88-.79-.11-2,.24-2-1.06-.06-1.11.81-1.64,1.78-1.91A13,13,0,0,1,168.8,257.17Z"/><path class="cls-1" d="M206.5,373a3.58,3.58,0,0,1-3.53-3.68,2.71,2.71,0,0,1,2.83-2.86c2.15-.18,4.17,1.37,4.3,3.21C210.23,371.31,208.53,372.88,206.5,373Z"/><path class="cls-1" d="M147.91,372.82c-2,0-3.76-1.5-3.8-3.15a3.75,3.75,0,0,1,4-3.5,3.36,3.36,0,0,1,3.61,3.24A3.57,3.57,0,0,1,147.91,372.82Z"/><path class="cls-1" d="M157.68,393.23c-.24,1,.22,4.57-.88,5.15a2.83,2.83,0,0,1-1-2.09c-.55-4-2-7.52-5.68-9.64-2.07-1.19-2.6-.82-2.75,1.47-.55,8.37-1.07,16.75-1.71,25.11-.17,2.28,0,4.27,2,5.69.37.26.85.61.59,1.16s-.81.4-1.27.37c-.71-.05-1.42-.11-2.13-.21-3.42-.48-6.79-1.37-10.53-1.47,4.93-2.65,4.15-7.31,4.55-11.52.63-6.7,1.16-13.41,1.88-20.09.23-2.07-.57-2.22-2.1-1.59-2.16.9-3.46,2.73-4.65,4.6s-2.3,3.94-3.45,5.92c-.87-.33-.5-1-.41-1.42.72-4,1.51-7.93,2.26-11.89.34-1.82,1.16-2,3-1.69,4.49.83,9.07,1.15,13.61,1.66,1.78.19,3.56.25,5.35.39a2.29,2.29,0,0,1,2.35,2.29c.21,1.54.48,2.28.88,4.08Z"/></svg>